<svg xmlns="http://www.w3.org/2000/svg" width="34.725" height="28.938" viewBox="0 0 34.725 28.938"><defs><style>.a{fill:rgba(255,255,255,0.85);fill-rule:evenodd;}</style></defs><g transform="translate(-2.558 -209.568)"><path class="a" d="M-128.023-410.318a3.565,3.565,0,0,0-3.725,2.276l-2.987,7.54A3.964,3.964,0,0,0-137.909-397v9.873h2.87v3.322c-.139,3.166,5.008,3.289,5.123-.033l.061-3.261h18.618l.061,3.261c.115,3.322,5.267,3.2,5.128.033v-3.322h2.865V-397a3.964,3.964,0,0,0-3.174-3.506l-2.987-7.54a3.565,3.565,0,0,0-3.725-2.276h-14.953Zm.341,2.615c.13,0,.267,0,.407.009l13.5.042c1.236-.029,1.76,0,2.286,1.178l2.15,5.843-22.4-.028,2.127-5.688a1.7,1.7,0,0,1,1.926-1.357h0Zm-4.7,10a2.433,2.433,0,0,1,2.426,2.441,2.437,2.437,0,0,1-2.426,2.446,2.437,2.437,0,0,1-2.426-2.446A2.433,2.433,0,0,1-132.384-397.7Zm23.811,0a2.429,2.429,0,0,1,2.421,2.441,2.433,2.433,0,0,1-2.421,2.446A2.437,2.437,0,0,1-111-395.262,2.433,2.433,0,0,1-108.573-397.7Zm-1.666-3.215Z" transform="translate(140.467 619.89)"/></g></svg>